<svg xmlns="http://www.w3.org/2000/svg" viewBox="0 0 169.96 21.85"><defs><style>.cls-1{fill:#2c3454;}</style></defs><title>Asset 3</title><g id="Layer_2" data-name="Layer 2"><g id="Layer_1-2" data-name="Layer 1"><path class="cls-1" d="M29,13.34V9.12c0-2.37-.9-4.53-4.18-4.53a7,7,0,0,0-3.5.88.15.15,0,0,0-.06.17l.41,1.28a.15.15,0,0,0,.21.08,5.18,5.18,0,0,1,2.55-.68c2.12,0,2.23,1.48,2.25,2.35a.15.15,0,0,1-.15.14c-3.75,0-6.1,1.42-6.1,4.16a3.16,3.16,0,0,0,3.28,3.26,3.7,3.7,0,0,0,3.11-1.53h.06L27,15.88a.17.17,0,0,0,.14.12H29a.14.14,0,0,0,.15-.17A17.44,17.44,0,0,1,29,13.34Zm-2.3-1.09a2.28,2.28,0,0,1-2.33,2.27,1.6,1.6,0,0,1-1.65-1.8c0-1.93,2-2.3,3.83-2.32a.15.15,0,0,1,.15.14Z"/><path class="cls-1" d="M38.67,5a6.2,6.2,0,0,0-2.38-.45c-3.59,0-5.77,2.55-5.77,5.93s2.12,5.68,5.33,5.68a7.41,7.41,0,0,0,2.76-.51c.06,0,.11-.08.08-.14l-.28-1.47a.13.13,0,0,0-.19-.1,5.08,5.08,0,0,1-1.93.37c-1.94,0-3.38-1.46-3.38-3.91,0-2.19,1.21-4,3.4-4a4.49,4.49,0,0,1,1.85.37.18.18,0,0,0,.21-.1l.39-1.52A.14.14,0,0,0,38.67,5Z"/><path class="cls-1" d="M45,9.74a.19.19,0,0,1,0-.18l3.67-4.27a.13.13,0,0,0-.11-.22H46.24c-.07,0-.11,0-.13.06L43.37,8.79c-.26.4-.57.87-.84,1.3h0V.14A.14.14,0,0,0,42.34,0H40.28a.14.14,0,0,0-.14.14v16a.14.14,0,0,0,.14.14h2.06a.14.14,0,0,0,.15-.14V12.3a.16.16,0,0,1,0-.11l.76-.92a.13.13,0,0,1,.23,0l3,4.88a.14.14,0,0,0,.12.06h2.49c.12,0,.19-.12.08-.25Z"/><path class="cls-1" d="M55.8,4.61c-3.18,0-5,2.66-5,6s1.94,5.65,5.29,5.65a8.85,8.85,0,0,0,3.44-.62c.06,0,.11-.11.09-.17l-.31-1.38a.13.13,0,0,0-.19-.1,7,7,0,0,1-2.66.45,3.13,3.13,0,0,1-3.37-3.31A.14.14,0,0,1,53.2,11H60a.15.15,0,0,0,.14-.12c0-.25,0-.54,0-.87C60.18,7.22,58.93,4.61,55.8,4.61Zm2,4.67H53.22c-.08,0-.16-.06-.14-.14.16-1.28.9-2.84,2.55-2.84S57.94,7.82,58,9.14A.14.14,0,0,1,57.81,9.28Z"/><path class="cls-1" d="M67.17,4.92a2.68,2.68,0,0,0-.45,0,2.94,2.94,0,0,0-2.91,2h-.08l-.06-1.63a.15.15,0,0,0-.14-.14H61.78a.14.14,0,0,0-.15.14c0,1,.06,2,.06,3.26v7.6a.14.14,0,0,0,.15.14h2a.14.14,0,0,0,.14-.14V10.34c0-1.94,1-3.23,2.58-3.23a3.83,3.83,0,0,1,.53,0A.15.15,0,0,0,67.3,7V5.07A.16.16,0,0,0,67.17,4.92Z"/><path class="cls-1" d="M73.71,4.61c-3.18,0-5,2.66-5,6s1.94,5.65,5.29,5.65a8.85,8.85,0,0,0,3.44-.62c.06,0,.11-.11.08-.17l-.3-1.38A.13.13,0,0,0,77,14a7,7,0,0,1-2.66.45A3.13,3.13,0,0,1,71,11.1a.14.14,0,0,1,.14-.15h6.8a.15.15,0,0,0,.14-.12c0-.25,0-.54,0-.87C78.09,7.22,76.84,4.61,73.71,4.61Zm2,4.67H71.13c-.08,0-.16-.06-.14-.14.16-1.28.9-2.84,2.55-2.84s2.31,1.52,2.33,2.84A.14.14,0,0,1,75.72,9.28Z"/><path class="cls-1" d="M88.11,13.37V9.14c0-2.36-.91-4.53-4.18-4.53a6.88,6.88,0,0,0-3.5.89.12.12,0,0,0-.06.16l.41,1.28A.14.14,0,0,0,81,7a5.22,5.22,0,0,1,2.56-.68c2.12,0,2.22,1.49,2.24,2.35a.15.15,0,0,1-.14.15c-3.75,0-6.1,1.42-6.1,4.16a3.15,3.15,0,0,0,3.28,3.25,3.72,3.72,0,0,0,3.11-1.52H86l.14,1.17a.17.17,0,0,0,.15.12h1.81a.13.13,0,0,0,.14-.16A19.23,19.23,0,0,1,88.11,13.37Zm-2.29-1.09a2.27,2.27,0,0,1-2.32,2.26,1.6,1.6,0,0,1-1.65-1.79c0-1.94,2-2.31,3.83-2.33a.14.14,0,0,1,.14.15Z"/><path class="cls-1" d="M95.27,4.92a2.68,2.68,0,0,0-.45,0,2.81,2.81,0,0,0-2.91,1.86h-.1l-.06-1.49a.15.15,0,0,0-.15-.14H89.85a.14.14,0,0,0-.14.14c0,1,.06,2,.06,3.26v7.6a.14.14,0,0,0,.15.14H92a.14.14,0,0,0,.14-.14V10.34c0-1.94,1-3.23,2.57-3.23a3.86,3.86,0,0,1,.54,0A.14.14,0,0,0,95.39,7V5.07A.15.15,0,0,0,95.27,4.92Z"/><path class="cls-1" d="M103.07,4.85H100.7a.15.15,0,0,1-.15-.14V2.3a.14.14,0,0,0-.18-.15l-2,.64a.11.11,0,0,0-.08.15V4.71a.14.14,0,0,1-.15.14H96.79a.14.14,0,0,0-.15.15V6.48a.14.14,0,0,0,.15.14h1.29a.14.14,0,0,1,.15.15v5.62a4.15,4.15,0,0,0,.82,3,3,3,0,0,0,2.21.84A5.27,5.27,0,0,0,103,16a.15.15,0,0,0,.1-.14L103,14.33a.16.16,0,0,0-.19-.13,3.34,3.34,0,0,1-.86.11c-1,0-1.43-.66-1.43-2V6.77a.15.15,0,0,1,.15-.15h2.37a.14.14,0,0,0,.14-.14V5A.14.14,0,0,0,103.07,4.85Z"/><path class="cls-1" d="M110.2,4.86A3.43,3.43,0,0,0,107,6h0V.14a.14.14,0,0,0-.14-.14h-2.06a.14.14,0,0,0-.14.14v16a.14.14,0,0,0,.14.14h2.06a.14.14,0,0,0,.14-.14V9.41a2.35,2.35,0,0,1,2.39-2.49c1.59,0,2.12,1.19,2.12,2.8v6.39a.15.15,0,0,0,.15.14h2.06a.15.15,0,0,0,.14-.14V9.52C113.72,6.08,112,5,110.2,4.86Z"/><path class="cls-1" d="M17.55.12H7.16V6h.1a3.29,3.29,0,0,1,3.2-1.21C12.24,4.92,14,6,14.1,9.46V16.3h0a.27.27,0,0,1-.26.26H11.93a.26.26,0,0,1-.26-.26h0V9.67c0-1.61-.53-2.82-2.12-2.82A2.36,2.36,0,0,0,7.16,9.36V16.3h0a.26.26,0,0,1-.26.26H5a.26.26,0,0,1-.26-.26h0V.12H1.44A1.38,1.38,0,0,0,0,1.45v19a1.45,1.45,0,0,0,1.44,1.4H17.55a1.32,1.32,0,0,0,1.28-1.4v-19A1.25,1.25,0,0,0,17.55.12Zm-2.3,19H3.58V17.92H15.25Z"/><rect class="cls-1" x="121.81" y="0.12" width="1.29" height="21.72"/><path class="cls-1" d="M135.87,4.56a4.08,4.08,0,0,1,3.42,1.59,7.22,7.22,0,0,1,1.22,4.47,7.18,7.18,0,0,1-1.24,4.49,4.52,4.52,0,0,1-6.9,0h-.17l-.46,1.39h-1.87V0h2.5V3.92c0,.29,0,.72-.05,1.3s0,.93-.06,1.09h.11A3.94,3.94,0,0,1,135.87,4.56Zm-.65,2a2.54,2.54,0,0,0-2.17.88,5.15,5.15,0,0,0-.68,3v.17a5.43,5.43,0,0,0,.68,3.1,2.52,2.52,0,0,0,2.21,1,2.23,2.23,0,0,0,2-1,5.54,5.54,0,0,0,.69-3C138,7.93,137,6.6,135.22,6.6Z"/><path class="cls-1" d="M145,16.5h-2.49V0H145Z"/><path class="cls-1" d="M158.08,10.62a6.4,6.4,0,0,1-1.47,4.48,5.25,5.25,0,0,1-4.1,1.61A5.57,5.57,0,0,1,149.6,16a4.84,4.84,0,0,1-1.94-2.13,7.3,7.3,0,0,1-.68-3.22,6.39,6.39,0,0,1,1.46-4.46,5.31,5.31,0,0,1,4.13-1.6,5.17,5.17,0,0,1,4,1.64A6.32,6.32,0,0,1,158.08,10.62Zm-8.53,0c0,2.7,1,4.06,3,4.06s3-1.36,3-4.06-1-4-3-4a2.54,2.54,0,0,0-2.28,1A5.27,5.27,0,0,0,149.55,10.62Z"/><path class="cls-1" d="M170,4.77V6.14l-2,.37a3.36,3.36,0,0,1,.45.91,3.64,3.64,0,0,1,.18,1.15,3.48,3.48,0,0,1-1.25,2.85,5.23,5.23,0,0,1-3.44,1,6.21,6.21,0,0,1-1-.08,1.4,1.4,0,0,0-.81,1.16.67.67,0,0,0,.38.61,3.31,3.31,0,0,0,1.38.2h2a4.51,4.51,0,0,1,3,.83,2.89,2.89,0,0,1,1,2.38,3.46,3.46,0,0,1-1.64,3.08,8.67,8.67,0,0,1-4.75,1.08,6.52,6.52,0,0,1-3.66-.85,2.75,2.75,0,0,1-1.26-2.42,2.6,2.6,0,0,1,.68-1.82,3.7,3.7,0,0,1,1.92-1,1.86,1.86,0,0,1-.82-.68,1.73,1.73,0,0,1-.33-1,1.77,1.77,0,0,1,.37-1.11,4.49,4.49,0,0,1,1.11-.9A3.26,3.26,0,0,1,160,10.64a3.74,3.74,0,0,1-.57-2.07,3.73,3.73,0,0,1,1.2-3A5.08,5.08,0,0,1,164,4.56a7.71,7.71,0,0,1,1.05.07,7.43,7.43,0,0,1,.82.14Zm-9.21,13.56a1.38,1.38,0,0,0,.72,1.24,4,4,0,0,0,2,.43,6.2,6.2,0,0,0,3-.58,1.76,1.76,0,0,0,1-1.55,1.17,1.17,0,0,0-.54-1.09,4.49,4.49,0,0,0-2-.32h-1.89a2.69,2.69,0,0,0-1.7.5A1.66,1.66,0,0,0,160.75,18.33Zm1.07-9.76a2.42,2.42,0,0,0,.56,1.7,2.18,2.18,0,0,0,1.63.59c1.44,0,2.17-.77,2.17-2.31a2.62,2.62,0,0,0-.54-1.77A2.05,2.05,0,0,0,164,6.16a2.12,2.12,0,0,0-1.64.62A2.58,2.58,0,0,0,161.82,8.57Z"/></g></g></svg>