<svg xmlns="http://www.w3.org/2000/svg" viewBox="0 0 113.82 21.85"><defs><style>.cls-1{fill:#46535e;}</style></defs><title>HE_Logo</title><g id="Layer_2" data-name="Layer 2"><g id="Layer_1-2" data-name="Layer 1"><path class="cls-1" d="M29,13.34V9.12c0-2.37-.9-4.53-4.18-4.53a7,7,0,0,0-3.5.88.15.15,0,0,0-.06.17l.41,1.28a.15.15,0,0,0,.21.08,5.18,5.18,0,0,1,2.55-.68c2.12,0,2.23,1.48,2.25,2.35a.15.15,0,0,1-.15.14c-3.75,0-6.1,1.42-6.1,4.16a3.16,3.16,0,0,0,3.28,3.26,3.7,3.7,0,0,0,3.11-1.53h.06L27,15.88a.17.17,0,0,0,.14.12H29a.14.14,0,0,0,.15-.17A17.44,17.44,0,0,1,29,13.34Zm-2.3-1.09a2.28,2.28,0,0,1-2.33,2.27,1.6,1.6,0,0,1-1.65-1.8c0-1.93,2-2.3,3.83-2.32a.15.15,0,0,1,.15.14Z"/><path class="cls-1" d="M38.67,5a6.39,6.39,0,0,0-2.38-.45c-3.59,0-5.77,2.55-5.77,5.93s2.12,5.68,5.33,5.68a7.41,7.41,0,0,0,2.76-.51c.06,0,.11-.08.08-.14l-.28-1.47a.13.13,0,0,0-.19-.1,5.08,5.08,0,0,1-1.93.37c-1.94,0-3.38-1.46-3.38-3.91,0-2.19,1.21-4,3.4-4a4.49,4.49,0,0,1,1.85.37.18.18,0,0,0,.21-.1l.39-1.52A.14.14,0,0,0,38.67,5Z"/><path class="cls-1" d="M45,9.74a.19.19,0,0,1,0-.18l3.67-4.27a.13.13,0,0,0-.11-.22H46.24c-.07,0-.11,0-.13.06L43.37,8.79c-.27.4-.57.87-.84,1.3h0V.14A.14.14,0,0,0,42.34,0H40.28a.14.14,0,0,0-.14.14v16a.14.14,0,0,0,.14.14h2.06a.14.14,0,0,0,.15-.14V12.3a.16.16,0,0,1,0-.11l.76-.92a.13.13,0,0,1,.23,0l3,4.88a.14.14,0,0,0,.12.06h2.49c.12,0,.19-.12.08-.25Z"/><path class="cls-1" d="M55.8,4.61c-3.18,0-5,2.66-5,6s1.94,5.65,5.29,5.65a8.85,8.85,0,0,0,3.44-.62c.06,0,.11-.11.08-.17l-.3-1.38a.13.13,0,0,0-.19-.1,7,7,0,0,1-2.66.45,3.13,3.13,0,0,1-3.37-3.31A.14.14,0,0,1,53.2,11H60a.15.15,0,0,0,.14-.12c0-.25,0-.54,0-.87C60.18,7.22,58.93,4.61,55.8,4.61Zm2,4.67H53.22c-.08,0-.16-.06-.14-.14.16-1.28.9-2.84,2.55-2.84S57.94,7.82,58,9.14A.14.14,0,0,1,57.81,9.28Z"/><path class="cls-1" d="M67.17,4.92a2.68,2.68,0,0,0-.45,0,2.94,2.94,0,0,0-2.91,2h-.08l-.06-1.63a.15.15,0,0,0-.14-.14H61.78a.14.14,0,0,0-.15.14c0,1,.06,2,.06,3.26v7.6a.14.14,0,0,0,.15.14h2a.14.14,0,0,0,.14-.14V10.34c0-1.94,1-3.23,2.58-3.23a3.83,3.83,0,0,1,.53,0A.15.15,0,0,0,67.3,7V5.07A.16.16,0,0,0,67.17,4.92Z"/><path class="cls-1" d="M73.71,4.61c-3.18,0-5,2.66-5,6s1.94,5.65,5.29,5.65a8.85,8.85,0,0,0,3.44-.62c.06,0,.11-.11.09-.17l-.31-1.38A.13.13,0,0,0,77,14a7,7,0,0,1-2.66.45A3.13,3.13,0,0,1,71,11.1a.14.14,0,0,1,.14-.15h6.8a.15.15,0,0,0,.14-.12c0-.25,0-.54,0-.87C78.09,7.22,76.84,4.61,73.71,4.61Zm2,4.67H71.13c-.08,0-.16-.06-.14-.14.16-1.28.9-2.84,2.55-2.84s2.31,1.52,2.33,2.84A.14.14,0,0,1,75.72,9.28Z"/><path class="cls-1" d="M88.11,13.37V9.14c0-2.36-.91-4.53-4.18-4.53a6.88,6.88,0,0,0-3.5.89.12.12,0,0,0-.06.16l.41,1.28A.14.14,0,0,0,81,7a5.22,5.22,0,0,1,2.56-.68c2.12,0,2.22,1.49,2.24,2.35a.15.15,0,0,1-.14.15c-3.75,0-6.1,1.42-6.1,4.16a3.15,3.15,0,0,0,3.28,3.25,3.72,3.72,0,0,0,3.11-1.52H86l.14,1.17a.17.17,0,0,0,.15.12h1.81a.13.13,0,0,0,.14-.16A19.23,19.23,0,0,1,88.11,13.37Zm-2.29-1.09a2.27,2.27,0,0,1-2.32,2.26,1.59,1.59,0,0,1-1.65-1.79c0-1.94,2-2.31,3.83-2.33a.14.14,0,0,1,.14.15Z"/><path class="cls-1" d="M95.27,4.92a2.68,2.68,0,0,0-.45,0,2.81,2.81,0,0,0-2.91,1.86h-.1l-.06-1.49a.15.15,0,0,0-.15-.14H89.85a.14.14,0,0,0-.14.14c0,1,.06,2,.06,3.26v7.6a.14.14,0,0,0,.15.14H92a.14.14,0,0,0,.14-.14V10.34c0-1.94,1-3.23,2.57-3.23a3.86,3.86,0,0,1,.54,0A.14.14,0,0,0,95.39,7V5.07A.15.15,0,0,0,95.27,4.92Z"/><path class="cls-1" d="M103.07,4.85H100.7a.14.14,0,0,1-.14-.14V2.3a.15.15,0,0,0-.19-.15l-2,.64a.11.11,0,0,0-.08.15V4.71a.14.14,0,0,1-.15.14H96.79a.14.14,0,0,0-.15.15V6.48a.14.14,0,0,0,.15.14h1.29a.14.14,0,0,1,.15.15v5.62a4.15,4.15,0,0,0,.82,3,3,3,0,0,0,2.21.84A5.27,5.27,0,0,0,103,16a.15.15,0,0,0,.1-.14L103,14.33a.16.16,0,0,0-.19-.13,3.34,3.34,0,0,1-.86.11c-1,0-1.42-.66-1.42-2V6.77a.14.14,0,0,1,.14-.15h2.37a.14.14,0,0,0,.14-.14V5A.14.14,0,0,0,103.07,4.85Z"/><path class="cls-1" d="M110.2,4.86A3.43,3.43,0,0,0,107,6h0V.14a.14.14,0,0,0-.14-.14h-2.06a.14.14,0,0,0-.14.14v16a.14.14,0,0,0,.14.14h2.06a.14.14,0,0,0,.14-.14V9.41a2.35,2.35,0,0,1,2.39-2.49c1.59,0,2.12,1.2,2.12,2.8v6.39a.15.15,0,0,0,.15.14h2.06a.15.15,0,0,0,.14-.14V9.52C113.72,6.08,112,5,110.2,4.86Z"/><path class="cls-1" d="M17.55.12H7.16V6h.1a3.29,3.29,0,0,1,3.2-1.21C12.24,4.92,14,6,14.1,9.46V16.3h0a.27.27,0,0,1-.26.26H11.93a.26.26,0,0,1-.26-.26h0V9.67c0-1.61-.53-2.82-2.12-2.82A2.36,2.36,0,0,0,7.16,9.36V16.3h0a.26.26,0,0,1-.26.26H5a.26.26,0,0,1-.26-.26h0V.12H1.44A1.38,1.38,0,0,0,0,1.45v19a1.45,1.45,0,0,0,1.44,1.4H17.55a1.32,1.32,0,0,0,1.28-1.4v-19A1.25,1.25,0,0,0,17.55.12Zm-2.3,19H3.58V17.92H15.25Z"/></g></g></svg>